<svg width="41" height="40" viewBox="0 0 41 40" fill="none" xmlns="http://www.w3.org/2000/svg">
<rect x="0.333374" width="40" height="40" rx="10" fill="#E6F4EC"/>
<path d="M12.3668 10.1621L11.9449 10.5605L10.8903 11.6152L10.4918 12.0371L10.7965 12.5293L12.3668 15.1543L12.5778 15.5293H14.7809L17.7809 18.5059C15.1002 21.1982 11.6901 24.6201 11.5699 24.7402C10.3951 25.915 10.3922 27.8398 11.5934 28.959C12.7653 30.1162 14.6754 30.1455 15.7887 28.959C15.7975 28.9502 15.8033 28.9443 15.8121 28.9355L20.4293 24.2949L25.0699 28.959L25.1403 29.0059C26.318 30.1162 28.1901 30.1309 29.2887 28.959V28.9355H29.3121C30.4606 27.7607 30.4723 25.8506 29.2887 24.7402L29.2653 24.7168L25.3512 20.8262C27.985 20.5801 30.0475 18.3564 30.0856 15.6699H30.109C30.1119 15.6553 30.109 15.6377 30.109 15.623C30.109 15.6143 30.109 15.6084 30.109 15.5996C30.1823 14.7324 29.9948 13.9033 29.5465 13.1855L29.0309 12.3887L25.5387 15.8809L24.484 14.7793L28.0465 11.2168L27.0153 10.7949C26.4117 10.5371 25.7145 10.3496 24.9293 10.3496C22.0465 10.3496 19.6793 12.7168 19.6793 15.5996C19.6793 15.9131 19.7467 16.1855 19.7965 16.4668C19.4684 16.7949 19.2223 17.0645 18.8356 17.4512L15.859 14.4746V12.248L15.484 12.0371L12.859 10.4668L12.3668 10.1621ZM24.9293 11.8496C25.0348 11.8496 25.108 11.9111 25.2106 11.9199L22.3746 14.7559L22.8903 15.2949L24.9996 17.4746L25.5153 18.0137L28.4918 15.0371C28.5065 15.21 28.6295 15.3359 28.609 15.5293V15.5996C28.609 17.665 26.9244 19.3496 24.859 19.3496C24.5836 19.3496 24.2496 19.2852 23.8746 19.209L23.4762 19.1387L23.1949 19.4199L14.734 27.9043H14.7106V27.9277C14.1774 28.5107 13.2457 28.5254 12.6246 27.9043V27.8809H12.6012C12.0182 27.3477 12.0035 26.416 12.6246 25.7949C12.9088 25.5107 18.4137 19.959 21.109 17.2637L21.4137 16.959L21.2965 16.5371C21.235 16.2939 21.1793 15.875 21.1793 15.5996C21.1793 13.5342 22.8639 11.8496 24.9293 11.8496ZM12.6012 12.0371L14.359 13.1152V13.8652L14.1949 14.0293H13.4449L12.3668 12.2715L12.6012 12.0371ZM23.5699 21.1543L28.234 25.7949V25.8184H28.2574C28.8405 26.3516 28.8551 27.2832 28.234 27.9043H28.2106V27.9277C27.6774 28.5107 26.7457 28.5254 26.1246 27.9043L21.484 23.2402L23.5699 21.1543Z" fill="#008C3A"/>
</svg>
