<svg width="25" height="24" viewBox="0 0 25 24" fill="none" xmlns="http://www.w3.org/2000/svg">
<g clip-path="url(#clip0_17_363)">
<path d="M24.6667 0H0.666687V24H24.6667V0Z" fill="white" fill-opacity="0.01"/>
<path d="M19.6667 2H5.66669C5.1144 2 4.66669 2.44772 4.66669 3V21C4.66669 21.5523 5.1144 22 5.66669 22H19.6667C20.219 22 20.6667 21.5523 20.6667 21V3C20.6667 2.44772 20.219 2 19.6667 2Z" stroke="#008C3A" stroke-width="2"/>
<path d="M4.66669 7.75H20.6667" stroke="#008C3A" stroke-width="2" stroke-linecap="round" stroke-linejoin="round"/>
<path d="M14.6667 6C15.219 6 15.6667 5.55228 15.6667 5C15.6667 4.44772 15.219 4 14.6667 4C14.1144 4 13.6667 4.44772 13.6667 5C13.6667 5.55228 14.1144 6 14.6667 6Z" fill="#008C3A"/>
<path d="M17.6667 6C18.219 6 18.6667 5.55228 18.6667 5C18.6667 4.44772 18.219 4 17.6667 4C17.1144 4 16.6667 4.44772 16.6667 5C16.6667 5.55228 17.1144 6 17.6667 6Z" fill="#008C3A"/>
<path d="M12.6667 18.5C14.5997 18.5 16.1667 16.933 16.1667 15C16.1667 13.067 14.5997 11.5 12.6667 11.5C10.7337 11.5 9.16669 13.067 9.16669 15C9.16669 16.933 10.7337 18.5 12.6667 18.5Z" stroke="#008C3A" stroke-width="2"/>
</g>
<defs>
<clipPath id="clip0_17_363">
<rect width="24" height="24" fill="white" transform="translate(0.666687)"/>
</clipPath>
</defs>
</svg>
