<?xml version="1.0" encoding="utf-8"?><svg viewBox="0 0 18 16" xmlns="http://www.w3.org/2000/svg" xmlns:xlink="http://www.w3.org/1999/xlink"><style>:root>svg{display:none}:root>svg:target{display:block}</style><svg fill="none" viewBox="0 0 16 16" id="basket" xmlns="http://www.w3.org/2000/svg"><path d="M1.6 1.533h1.3c.155 0 .232 0 .3.008a1.2 1.2 0 01.986.77c.024.064.043.14.08.29l.146.58A2.05 2.05 0 006.4 4.733v0" stroke="#fff" stroke-linecap="round"/><path d="M12.8 11.933H4.44a.894.894 0 01-.848-1.177v0A1.789 1.789 0 015.29 9.533H9.6" stroke="#fff" stroke-linecap="round" stroke-linejoin="round"/><path d="M9.964 9.533H7.18c-.326 0-.49 0-.633-.017A2.4 2.4 0 014.53 7.808a5.75 5.75 0 01-.121-.622c-.054-.326-.082-.488-.084-.622A1.8 1.8 0 015.86 4.753c.132-.02.297-.02.627-.02h4.582c.794 0 1.191 0 1.459.107a1.5 1.5 0 01.94 1.52c-.025.287-.202.642-.558 1.352h0c-.238.478-.358.717-.512.911a2.4 2.4 0 01-1.39.86c-.243.05-.51.05-1.044.05z" stroke="#fff" stroke-linecap="round"/><circle cx="12" cy="14.333" fill="#fff" r=".8"/><circle cx="5.6" cy="14.333" fill="#fff" r=".8"/></svg><svg fill="none" viewBox="0 0 18 16" id="liked" xmlns="http://www.w3.org/2000/svg"><path fill-rule="evenodd" clip-rule="evenodd" d="M11.966 2.053c-.927-.014-1.772.299-2.342 1.154a.75.75 0 01-1.248 0C7.81 2.358 6.95 2.053 6.023 2.053c-1.86 0-3.715 1.564-3.715 3.715 0 2.282 1.48 4.327 3.192 5.86a15.376 15.376 0 002.403 1.76c.347.204.644.355.866.453.098.043.175.073.231.092.056-.019.133-.049.231-.092.222-.098.519-.249.866-.453a15.375 15.375 0 002.403-1.76c1.713-1.533 3.192-3.578 3.192-5.86 0-2.142-1.849-3.688-3.726-3.715zm-2.899 11.9zM8.998 1.637c.864-.81 1.953-1.1 2.99-1.084 2.587.037 5.204 2.147 5.204 5.215 0 2.926-1.87 5.347-3.692 6.977a16.876 16.876 0 01-2.643 1.937c-.386.226-.735.406-1.022.532a4.08 4.08 0 01-.402.155 1.467 1.467 0 01-.433.079c-.167 0-.328-.045-.433-.079a4.08 4.08 0 01-.402-.155 10.155 10.155 0 01-1.022-.533A16.871 16.871 0 014.5 12.745C2.678 11.115.808 8.694.808 5.768c0-3.059 2.61-5.215 5.215-5.215 1.007 0 2.104.276 2.975 1.084z" fill="#008C3A"/></svg></svg>