<svg width="21" height="20" viewBox="0 0 21 20" fill="none" xmlns="http://www.w3.org/2000/svg">
<path d="M2.36682 0.162109L1.94495 0.560547L0.890259 1.61523L0.491821 2.03711L0.796509 2.5293L2.36682 5.1543L2.57776 5.5293H4.78088L7.78088 8.50586C5.10022 11.1982 1.69006 14.6201 1.56995 14.7402C0.395142 15.915 0.392212 17.8398 1.59338 18.959C2.76526 20.1162 4.67542 20.1455 5.7887 18.959C5.79749 18.9502 5.80334 18.9443 5.81213 18.9355L10.4293 14.2949L15.0699 18.959L15.1403 19.0059C16.318 20.1162 18.1901 20.1309 19.2887 18.959V18.9355H19.3121C20.4606 17.7607 20.4723 15.8506 19.2887 14.7402L19.2653 14.7168L15.3512 10.8262C17.985 10.5801 20.0475 8.35644 20.0856 5.66992H20.109C20.1119 5.65527 20.109 5.63769 20.109 5.62305C20.109 5.61426 20.109 5.6084 20.109 5.59961C20.1823 4.73242 19.9948 3.90332 19.5465 3.18555L19.0309 2.38867L15.5387 5.88086L14.484 4.7793L18.0465 1.2168L17.0153 0.794922C16.4117 0.537109 15.7145 0.349609 14.9293 0.349609C12.0465 0.349609 9.67932 2.7168 9.67932 5.59961C9.67932 5.91309 9.7467 6.18555 9.79651 6.4668C9.46838 6.79492 9.22229 7.06445 8.83557 7.45117L5.85901 4.47461V2.24805L5.48401 2.03711L2.85901 0.466797L2.36682 0.162109ZM14.9293 1.84961C15.0348 1.84961 15.108 1.91113 15.2106 1.91992L12.3746 4.75586L12.8903 5.29492L14.9996 7.47461L15.5153 8.01367L18.4918 5.03711C18.5065 5.20996 18.6295 5.33594 18.609 5.5293V5.59961C18.609 7.66504 16.9244 9.34961 14.859 9.34961C14.5836 9.34961 14.2496 9.28516 13.8746 9.20898L13.4762 9.13867L13.1949 9.41992L4.73401 17.9043H4.71057V17.9277C4.17737 18.5107 3.24573 18.5254 2.62463 17.9043V17.8809H2.6012C2.01819 17.3477 2.00354 16.416 2.62463 15.7949C2.90881 15.5107 8.4137 9.95898 11.109 7.26367L11.4137 6.95898L11.2965 6.53711C11.235 6.29394 11.1793 5.875 11.1793 5.59961C11.1793 3.53418 12.8639 1.84961 14.9293 1.84961ZM2.6012 2.03711L4.35901 3.11523V3.86523L4.19495 4.0293H3.44495L2.36682 2.27148L2.6012 2.03711ZM13.5699 11.1543L18.234 15.7949V15.8184H18.2574C18.8405 16.3516 18.8551 17.2832 18.234 17.9043H18.2106V17.9277C17.6774 18.5107 16.7457 18.5254 16.1246 17.9043L11.484 13.2402L13.5699 11.1543Z" fill="#008C3A"/>
</svg>
