<svg width="18" height="18" viewBox="0 0 18 18" fill="none" xmlns="http://www.w3.org/2000/svg">
<path fill-rule="evenodd" clip-rule="evenodd" d="M9 -7.86805e-07C4.02944 -1.22135e-06 1.22135e-06 4.02944 7.86805e-07 9C3.52265e-07 13.9706 4.02944 18 9 18C13.9706 18 18 13.9706 18 9C18 4.02944 13.9706 -3.52265e-07 9 -7.86805e-07ZM8.325 13.5C8.325 13.8728 8.62721 14.175 9 14.175C9.37279 14.175 9.675 13.8728 9.675 13.5L9.675 7.65C9.675 7.27721 9.37279 6.975 9 6.975C8.62721 6.975 8.325 7.27721 8.325 7.65L8.325 13.5ZM9 5.675C9.37279 5.675 9.675 5.37279 9.675 5C9.675 4.62721 9.37279 4.325 9 4.325L8.99 4.325C8.61721 4.325 8.315 4.62721 8.315 5C8.315 5.37279 8.61721 5.675 8.99 5.675L9 5.675Z" fill="#AAAAAA"/>
</svg>
