<svg width="16" height="16" viewBox="0 0 16 16" fill="none" xmlns="http://www.w3.org/2000/svg">
<path d="M1.59998 1.53345H2.90048C3.05492 1.53345 3.13214 1.53345 3.20077 1.54138C3.64741 1.59298 4.02774 1.88993 4.18613 2.31072C4.21047 2.37538 4.22919 2.45029 4.26665 2.60012L4.41193 3.18122C4.63999 4.09348 5.45965 4.73346 6.39999 4.73346V4.73346" stroke="white" stroke-linecap="round"/>
<path d="M12.8 11.9332H4.44068C3.83029 11.9332 3.39928 11.3352 3.5923 10.7562V10.7562C3.83575 10.0258 4.51922 9.5332 5.28905 9.5332H9.59997" stroke="white" stroke-linecap="round" stroke-linejoin="round"/>
<path d="M9.96435 9.53317H7.17944C6.85266 9.53317 6.68927 9.53317 6.54647 9.51599C5.59301 9.40129 4.79972 8.72927 4.52983 7.80764C4.48941 7.6696 4.46255 7.50844 4.40883 7.1861C4.35454 6.86042 4.3274 6.69758 4.3251 6.56429C4.30947 5.66089 4.96599 4.8859 5.85967 4.75279C5.99152 4.73315 6.15661 4.73315 6.48679 4.73315H11.0691C11.8634 4.73315 12.2605 4.73315 12.5277 4.8395C13.1419 5.08396 13.5236 5.70161 13.4676 6.36024C13.4432 6.64677 13.2656 7.00198 12.9104 7.71239L12.9104 7.71241L12.9104 7.71242C12.6717 8.18983 12.5523 8.42853 12.3982 8.62316C12.0496 9.06337 11.5577 9.3674 11.008 9.48235C10.765 9.53317 10.4981 9.53317 9.96435 9.53317Z" stroke="white" stroke-linecap="round"/>
<ellipse cx="12" cy="14.3334" rx="0.800002" ry="0.800002" fill="white"/>
<ellipse cx="5.60005" cy="14.3334" rx="0.800002" ry="0.800002" fill="white"/>
</svg>
