<svg width="18" height="16" viewBox="0 0 18 16" fill="none" xmlns="http://www.w3.org/2000/svg">
<path fill-rule="evenodd" clip-rule="evenodd" d="M11.9659 2.05264C11.0393 2.03923 10.1944 2.35152 9.624 3.20709C9.4849 3.41573 9.25073 3.54105 8.99997 3.54105C8.74921 3.54105 8.51504 3.41573 8.37594 3.20709C7.81008 2.35834 6.94953 2.05272 6.02322 2.05272C4.16389 2.05272 2.30811 3.61717 2.30811 5.76767C2.30811 8.05047 3.7873 10.0947 5.50005 11.6271C6.34297 12.3813 7.20884 12.9804 7.90303 13.3881C8.25042 13.5921 8.54678 13.7435 8.76858 13.841C8.8673 13.8845 8.94438 13.9142 8.99997 13.9329C9.05555 13.9142 9.13264 13.8845 9.23136 13.841C9.45316 13.7435 9.74952 13.5921 10.0969 13.3881C10.7911 12.9804 11.657 12.3813 12.4999 11.6271C14.2126 10.0947 15.6918 8.05047 15.6918 5.76767C15.6918 3.62592 13.8434 2.07981 11.9659 2.05264ZM9.06745 13.9528C9.06747 13.9528 9.06708 13.9527 9.06625 13.9525L9.06745 13.9528ZM8.99814 1.63659C9.86209 0.827374 10.9505 0.537793 11.9876 0.552797C14.5752 0.590238 17.1918 2.70033 17.1918 5.76767C17.1918 8.69403 15.3222 11.1147 13.5001 12.745C12.5755 13.5722 11.6274 14.2288 10.8565 14.6815C10.4713 14.9077 10.1224 15.0878 9.83544 15.214C9.69259 15.2769 9.55629 15.3303 9.43292 15.3694C9.32843 15.4026 9.16728 15.4476 8.99997 15.4476C8.83265 15.4476 8.67151 15.4026 8.56702 15.3694C8.44365 15.3303 8.30735 15.2769 8.1645 15.214C7.87758 15.0878 7.52859 14.9077 7.14342 14.6815C6.37249 14.2288 5.42441 13.5722 4.49988 12.745C2.67775 11.1147 0.808105 8.69404 0.808105 5.76767C0.808105 2.70907 3.41744 0.55272 6.02322 0.55272C7.03006 0.55272 8.12711 0.829401 8.99814 1.63659Z" fill="#008C3A"/>
</svg>
